<?xml version="1.0" encoding="UTF-8" standalone="no"?>
<!-- (c) ammap.com | SVG weather icons -->

<svg
   version="1.1"
   width="47.200001"
   height="57.769745"
   viewbox="0 0 64 64"
   id="svg5"
   sodipodi:docname="thunder.svg"
   inkscape:version="1.4 (86a8ad7, 2024-10-11)"
   xmlns:inkscape="http://www.inkscape.org/namespaces/inkscape"
   xmlns:sodipodi="http://sodipodi.sourceforge.net/DTD/sodipodi-0.dtd"
   xmlns="http://www.w3.org/2000/svg"
   xmlns:svg="http://www.w3.org/2000/svg">
  <sodipodi:namedview
     id="namedview5"
     pagecolor="#ffffff"
     bordercolor="#000000"
     borderopacity="0.25"
     inkscape:showpageshadow="2"
     inkscape:pageopacity="0.0"
     inkscape:pagecheckerboard="0"
     inkscape:deskcolor="#d1d1d1"
     inkscape:zoom="6.3046875"
     inkscape:cx="23.157373"
     inkscape:cy="24.664188"
     inkscape:window-width="1920"
     inkscape:window-height="1009"
     inkscape:window-x="-8"
     inkscape:window-y="-8"
     inkscape:window-maximized="1"
     inkscape:current-layer="svg5" />
  <defs
     id="defs2">
    <filter
       id="blur"
       width="1.4936709"
       height="1.4958505"
       x="-0.24683544"
       y="-0.1957535">
      <feGaussianBlur
         in="SourceAlpha"
         stdDeviation="3"
         id="feGaussianBlur1" />
      <feOffset
         dx="0"
         dy="4"
         result="offsetblur"
         id="feOffset1" />
      <feComponentTransfer
         id="feComponentTransfer1">
        <feFuncA
           type="linear"
           slope="0.05"
           id="feFuncA1" />
      </feComponentTransfer>
      <feMerge
         id="feMerge2">
        <feMergeNode
           id="feMergeNode1" />
        <feMergeNode
           in="SourceGraphic"
           id="feMergeNode2" />
      </feMerge>
    </filter>
  </defs>
  <g
     filter="url(#blur)"
     id="thunder"
     transform="matrix(1.4251958,0,0,1.4251958,-21.663078,-22.172181)">
    <g
       transform="translate(20,10)"
       id="g5">
      <g
         class="am-weather-cloud-1"
         id="g2">
        <path
           d="m 47.7,35.4 c 0,-4.6 -3.7,-8.2 -8.2,-8.2 -1,0 -1.9,0.2 -2.8,0.5 -0.3,-3.4 -3.1,-6.2 -6.6,-6.2 -3.7,0 -6.7,3 -6.7,6.7 0,0.8 0.2,1.6 0.4,2.3 -0.3,-0.1 -0.7,-0.1 -1,-0.1 -3.7,0 -6.7,3 -6.7,6.7 0,3.6 2.9,6.6 6.5,6.7 h 17.2 c 4.4,-0.5 7.9,-4 7.9,-8.4 z"
           fill="#91c0f8"
           stroke="#ffffff"
           stroke-linejoin="round"
           stroke-width="1.2"
           transform="matrix(0.6,0,0,0.6,-10,-6)"
           id="path2" />
      </g>
      <g
         id="g3">
        <path
           d="m 47.7,35.4 c 0,-4.6 -3.7,-8.2 -8.2,-8.2 -1,0 -1.9,0.2 -2.8,0.5 -0.3,-3.4 -3.1,-6.2 -6.6,-6.2 -3.7,0 -6.7,3 -6.7,6.7 0,0.8 0.2,1.6 0.4,2.3 -0.3,-0.1 -0.7,-0.1 -1,-0.1 -3.7,0 -6.7,3 -6.7,6.7 0,3.6 2.9,6.6 6.5,6.7 h 17.2 c 4.4,-0.5 7.9,-4 7.9,-8.4 z"
           fill="#57a0ee"
           stroke="#ffffff"
           stroke-linejoin="round"
           stroke-width="1.2"
           transform="translate(-20,-11)"
           id="path3" />
      </g>
      <g
         transform="matrix(1.2,0,0,1.2,-9,28)"
         id="g4">
        <polygon
           class="am-weather-stroke"
           fill="#ffa500"
           stroke="#ffffff"
           stroke-width="1"
           points="20.3,4.3 11.5,14.6 14.9,6.9 11.1,6.9 14.3,-2.9 20.5,-2.9 16.4,4.3 "
           id="polygon3" />
      </g>
    </g>
  </g>
</svg>
